<?xml version="1.0" encoding="utf-8"?>
<!-- Generator: Adobe Illustrator 17.0.0, SVG Export Plug-In . SVG Version: 6.00 Build 0)  -->
<!DOCTYPE svg PUBLIC "-//W3C//DTD SVG 1.1//EN" "http://www.w3.org/Graphics/SVG/1.1/DTD/svg11.dtd">
<svg version="1.1" id="Layer_1" xmlns="http://www.w3.org/2000/svg" xmlns:xlink="http://www.w3.org/1999/xlink" x="0px" y="0px"
	 width="94.194px" height="94.194px" viewBox="0 0 94.194 94.194" enable-background="new 0 0 94.194 94.194" xml:space="preserve">
<circle fill="#404E69" cx="47" cy="47.006" r="47.097"/>
<g>
	<path fill="#FFFFFF" d="M47.48,63.109c1.186,0,2.242-0.843,2.468-2.052l2.006-10.713c0.187-0.997-0.245-2.009-1.093-2.566
		l-9.969-6.529c-1.163-0.761-2.72-0.435-3.481,0.725c-0.761,1.161-0.435,2.72,0.726,3.481l8.568,5.612l-1.698,9.066
		c-0.255,1.364,0.643,2.679,2.008,2.933C47.171,63.095,47.327,63.109,47.48,63.109z"/>
	<path fill="#FFFFFF" d="M53.434,38.206c0.899,0,1.765-0.501,2.188-1.362c0.593-1.207,0.095-2.666-1.112-3.259l-12.212-5.998
		c-1.207-0.594-2.666-0.095-3.26,1.112c-0.593,1.207-0.095,2.666,1.112,3.259l12.212,5.998
		C52.707,38.125,53.074,38.206,53.434,38.206z"/>
	
		<path fill="#FFFFFF" stroke="#000000" stroke-width="8.6058" stroke-linecap="round" stroke-linejoin="round" stroke-miterlimit="10" d="
		M40.06,42.448"/>
	
		<path fill="#FFFFFF" stroke="#000000" stroke-width="8.6058" stroke-linecap="round" stroke-linejoin="round" stroke-miterlimit="10" d="
		M41.185,31.576"/>
	<circle fill="#FFFFFF" cx="43.454" cy="22.65" r="3.95"/>
	<path fill="#FFFFFF" d="M55.422,61.263c0-6.525,5.308-11.833,11.833-11.833c6.525,0,11.833,5.308,11.833,11.833
		c0,6.525-5.308,11.832-11.833,11.832C60.731,73.096,55.422,67.788,55.422,61.263z M57.323,61.263c0,5.477,4.456,9.933,9.933,9.933
		c5.477,0,9.933-4.456,9.933-9.933s-4.456-9.933-9.933-9.933C61.778,51.331,57.323,55.786,57.323,61.263z"/>
	<path fill="#FFFFFF" d="M57.007,61.263c0-5.652,4.598-10.249,10.249-10.249c5.652,0,10.249,4.597,10.249,10.249
		s-4.598,10.249-10.249,10.249h-0.002C61.603,71.512,57.007,66.915,57.007,61.263z M57.513,61.263c0,5.373,4.369,9.743,9.741,9.743
		h0.002c5.373,0,9.744-4.371,9.744-9.743c0-5.373-4.371-9.743-9.744-9.743C61.883,51.52,57.513,55.891,57.513,61.263z"/>
	<path fill="#FFFFFF" d="M18.834,61.042c0-6.525,5.307-11.833,11.833-11.833c6.524,0,11.832,5.308,11.832,11.833
		s-5.307,11.833-11.832,11.833S18.834,67.567,18.834,61.042z M20.734,61.042c0,5.477,4.456,9.933,9.933,9.933
		c5.476,0,9.932-4.456,9.932-9.933s-4.456-9.933-9.932-9.933C25.19,51.109,20.734,55.565,20.734,61.042z"/>
	<path fill="#FFFFFF" d="M20.417,61.106c0-5.652,4.598-10.25,10.249-10.25s10.249,4.598,10.249,10.25
		c0,5.651-4.597,10.247-10.249,10.247C25.016,71.354,20.417,66.757,20.417,61.106z M20.923,61.106c0,5.372,4.371,9.742,9.744,9.742
		c5.373,0,9.743-4.37,9.743-9.742c0-5.373-4.371-9.745-9.743-9.745S20.923,55.734,20.923,61.106z"/>
	<path fill="#FFFFFF" d="M47.598,62.733c0.315,0,0.6-0.188,0.723-0.478c0.058-0.137,5.881-13.656,12.57-13.192
		c0.433,0.023,0.807-0.299,0.835-0.732c0.028-0.434-0.299-0.807-0.732-0.836C53.9,47.027,48.261,58.577,47.09,61.154L31.783,60.94
		c6.764-17.377,28.234-14.668,28.455-14.638c0.432,0.061,0.826-0.243,0.885-0.672c0.059-0.43-0.242-0.826-0.672-0.885
		c-0.238-0.034-23.811-3.008-30.526,16.711c-0.082,0.238-0.043,0.501,0.101,0.706c0.145,0.206,0.379,0.329,0.631,0.333l16.931,0.237
		C47.59,62.733,47.594,62.733,47.598,62.733z"/>
	
		<path fill="#FFFFFF" stroke="#000000" stroke-width="1.7749" stroke-linecap="round" stroke-linejoin="round" stroke-miterlimit="10" d="
		M47.598,62.779"/>
	<path fill="#FFFFFF" d="M47.17,62.423c0.08,0,0.162-0.014,0.241-0.042c0.37-0.133,0.562-0.542,0.429-0.912l-4.502-12.492
		c-0.133-0.37-0.544-0.562-0.912-0.429c-0.371,0.133-0.562,0.542-0.429,0.912l4.501,12.492
		C46.604,62.243,46.878,62.423,47.17,62.423z"/>
	<path fill="#FFFFFF" d="M39.728,46.009c0.198,0,0.399-0.019,0.601-0.059c1.681-0.329,2.776-1.958,2.449-3.638
		c-0.443-2.3-0.806-7.762,0.902-9.971c1.048-1.356,0.799-3.305-0.557-4.353c-1.354-1.048-3.304-0.8-4.353,0.556
		c-3.89,5.032-2.279,13.957-2.083,14.959C36.976,44.983,38.275,46.009,39.728,46.009z"/>
	<path fill="#FFFFFF" d="M67.256,62.423c0.101,0,0.203-0.022,0.301-0.067c0.356-0.167,0.511-0.591,0.344-0.947l-6.403-13.712
		l-0.846-4.302c0.808-0.633,2.476-2.178,2.041-3.86c-0.454-1.756-2.998-2.814-7.776-3.233c-0.392-0.04-0.738,0.255-0.772,0.647
		c-0.034,0.392,0.255,0.738,0.647,0.772c5.501,0.483,6.393,1.678,6.521,2.17c0.226,0.869-1.147,2.132-1.847,2.607
		c-0.236,0.16-0.355,0.447-0.3,0.728l0.95,4.831c0.011,0.057,0.029,0.112,0.054,0.164l6.44,13.791
		C66.731,62.271,66.988,62.423,67.256,62.423z"/>
</g>
</svg>
