<?xml version="1.0" encoding="utf-8"?>
<!-- Generator: Adobe Illustrator 17.0.0, SVG Export Plug-In . SVG Version: 6.00 Build 0)  -->
<!DOCTYPE svg PUBLIC "-//W3C//DTD SVG 1.1//EN" "http://www.w3.org/Graphics/SVG/1.1/DTD/svg11.dtd">
<svg version="1.1" id="Layer_1" xmlns="http://www.w3.org/2000/svg" xmlns:xlink="http://www.w3.org/1999/xlink" x="0px" y="0px"
	 width="94.194px" height="94.194px" viewBox="0 0 94.194 94.194" enable-background="new 0 0 94.194 94.194" xml:space="preserve">
<circle fill="#404E69" cx="47.097" cy="47.097" r="47.097"/>
<g>
	<path fill="#FFFFFF" d="M45.282,29.756c3.885,0,7.045-3.16,7.045-7.045s-3.16-7.045-7.045-7.045s-7.045,3.16-7.045,7.045
		S41.397,29.756,45.282,29.756z M45.282,18.729c2.195,0,3.982,1.787,3.982,3.982c0,2.196-1.786,3.982-3.982,3.982
		S41.3,24.907,41.3,22.711C41.3,20.516,43.086,18.729,45.282,18.729z"/>
	<path fill="#FFFFFF" d="M67.607,31.006c-0.835-0.148-1.628,0.405-1.778,1.238l-1.431,7.997c-0.239-0.04-0.484-0.062-0.736-0.062
		c-0.631,0-1.408,0.123-2.229,0.254c-0.858,0.136-1.828,0.291-2.594,0.291c-0.635,0-0.846-0.111-0.836-0.098
		c-1.166-1.165-2.431-2.599-3.655-3.985c-1.12-1.27-2.179-2.469-3.083-3.373c-1.448-1.449-3.879-2.315-6.501-2.315
		c-2.21,0-4.142,0.615-5.422,1.669c-0.098-0.26-0.238-0.511-0.422-0.746c-0.76-0.974-2.165-1.604-3.579-1.604
		c-1.812,0-3.231,1.012-3.796,2.708c-1.238,3.713-1.885,10.353-1.885,14.993c0,2.465,2.596,4.45,4.745,4.45l0,0
		c0.605,0,1.139-0.149,1.597-0.414c-0.121,3.42-0.412,6.605-1.314,8.688c-0.581,1.338-1.069,2.677-1.541,3.972
		c-0.652,1.788-1.267,3.477-2.1,5.142c-1.043,2.086-0.458,3.595-0.016,4.31c0.746,1.207,2.153,1.958,3.673,1.958
		c1.374,0,2.568-0.609,3.275-1.67c2.499-3.75,4.345-8.03,4.422-8.211c0.026-0.059,0.047-0.121,0.065-0.183l1.539-5.393l2.674,4.01
		c-0.364,1.318-1.163,4.282-1.674,6.78c-0.244,1.196,0.034,2.365,0.788,3.288c0.816,1,2.103,1.596,3.443,1.596
		c1.946-0.001,3.569-1.228,4.235-3.205c1.038-3.075,2.654-8.599,1.839-11.044c-0.811-2.435-4.823-8.558-6.021-10.356l0.365-6.551
		c1.343,1.581,2.724,3.05,3.512,3.449c0.948,0.48,2.163,0.714,3.713,0.714c1.97,0,4.18-0.386,6.035-0.798l-4.439,24.783
		c-0.148,0.833,0.406,1.628,1.238,1.778c0.092,0.016,0.183,0.024,0.272,0.024c0.728,0,1.374-0.52,1.506-1.262l4.766-26.612
		c0.941-0.87,1.456-2.214,1.281-3.632c-0.059-0.483-0.197-0.926-0.393-1.324l1.698-9.479C68.993,31.951,68.44,31.154,67.607,31.006z
		 M56.879,46.241c-1.299,0-1.983-0.209-2.306-0.371c-0.65-0.397-3.119-3.278-5.019-5.72c-0.392-0.505-1.055-0.712-1.666-0.522
		c-0.61,0.191-1.037,0.739-1.072,1.377l-0.613,11.028c-0.017,0.333,0.073,0.662,0.259,0.94c1.432,2.13,5.291,8.084,5.944,10.045
		c0.296,0.89-0.246,4.381-1.836,9.097c-0.313,0.926-0.897,1.12-1.333,1.12c-0.416,0-0.837-0.183-1.068-0.467
		c-0.17-0.208-0.221-0.442-0.161-0.737c0.643-3.135,1.799-7.198,1.81-7.239c0.123-0.432,0.051-0.896-0.198-1.27l-4.9-7.352
		c-0.287-0.431-0.768-0.682-1.274-0.682c-0.079,0-0.158,0.006-0.237,0.018c-0.59,0.092-1.072,0.519-1.236,1.093l-2.423,8.48
		c-0.268,0.612-1.959,4.393-4.118,7.633c-0.183,0.276-0.569,0.307-0.726,0.307c-0.444,0-0.884-0.208-1.068-0.505
		c-0.235-0.38-0.049-0.933,0.15-1.33c0.911-1.822,1.586-3.673,2.238-5.463c0.457-1.252,0.928-2.548,1.473-3.802
		c1.484-3.418,1.573-8.663,1.659-13.736c0.09-5.262,0.183-10.703,1.838-12.911c0.562-0.75,2.078-1.254,3.771-1.254
		c1.8,0,3.462,0.544,4.336,1.417c0.836,0.836,1.864,2.001,2.953,3.234c1.255,1.422,2.553,2.893,3.787,4.126
		c0.668,0.668,1.649,0.994,3,0.994c1.007,0,2.105-0.174,3.074-0.329c0.668-0.106,1.36-0.216,1.748-0.216c0.051,0,0.121,0,0.195,0.01
		l-0.353,1.971C61.609,45.686,59.023,46.241,56.879,46.241z"/>
</g>
<path d="M36.336,49.789C36.348,49.834,36.359,49.879,36.336,49.789L36.336,49.789z"/>
<path d="M46.528,49.845c-0.028,0.003-0.067,0.016-0.087,0.012C46.346,49.9,46.485,49.861,46.528,49.845z"/>
<path d="M33.238,49.384L33.238,49.384C33.266,49.458,33.294,49.531,33.238,49.384z"/>
<path d="M24.413,47.229L24.413,47.229C24.424,47.297,24.418,47.263,24.413,47.229z"/>
</svg>
