<?xml version="1.0" encoding="utf-8"?>
<!-- Generator: Adobe Illustrator 17.0.0, SVG Export Plug-In . SVG Version: 6.00 Build 0)  -->
<!DOCTYPE svg PUBLIC "-//W3C//DTD SVG 1.1//EN" "http://www.w3.org/Graphics/SVG/1.1/DTD/svg11.dtd">
<svg version="1.1" id="Layer_1" xmlns="http://www.w3.org/2000/svg" xmlns:xlink="http://www.w3.org/1999/xlink" x="0px" y="0px"
	 width="94.194px" height="94.194px" viewBox="0 0 94.194 94.194" enable-background="new 0 0 94.194 94.194" xml:space="preserve">
<circle fill="#404E69" cx="47.097" cy="47.097" r="47.097"/>
<g>
	<path fill="#FFFFFF" d="M46.532,69.65c-1.691-1.371-4.1-2.424-7.571-2.424c-10.099,0-11.361,8.836-11.361,8.836H38.96h6.311
		C45.272,75.927,45.292,72.919,46.532,69.65z"/>
	<circle fill="#FFFFFF" cx="38.96" cy="59.021" r="5.681"/>
	<circle fill="#FFFFFF" cx="59.158" cy="55.234" r="5.681"/>
	<path fill="#FFFFFF" d="M69.256,31.882H49.059H28.862c-1.392,0-2.525,1.133-2.525,2.525v11.361v11.36
		c0,1.393,1.133,2.525,2.525,2.525h1.925c-0.016-0.21-0.032-0.417-0.032-0.631c0-0.651,0.085-1.285,0.229-1.894h-2.122V45.768
		V34.406h20.197h20.197v11.361v11.36h-2.123c-0.215,0.91-0.582,1.761-1.073,2.525h3.195c1.392,0,2.525-1.132,2.525-2.525v-11.36
		V34.406C71.781,33.015,70.648,31.882,69.256,31.882z"/>
	<circle fill="#FFFFFF" cx="61.676" cy="39.456" r="2.525"/>
	<path fill="#FFFFFF" d="M36.213,48.751l-4.462-4.462l4.462-4.462l4.464,4.462L36.213,48.751z M33.535,44.288l2.677,2.678
		l2.679-2.678l-2.679-2.678L33.535,44.288z"/>
	<path fill="#FFFFFF" d="M42.741,49.239c-0.522,0-0.947-0.424-0.947-0.947c0-0.522,0.424-0.947,0.947-0.947
		c4.614-0.001,11.54-0.891,12.489-2.866c0.229-0.477,0.025-1.119-0.605-1.907c-0.327-0.408-0.26-1.005,0.148-1.332
		c0.408-0.324,1.003-0.26,1.331,0.148c1.401,1.751,1.225,3.093,0.832,3.91C55.133,49.049,44.795,49.239,42.741,49.239z"/>
	<path fill="#FFFFFF" d="M49.558,38.699c0,0-2.273,0-2.273-2.273c0-0.418-0.338-0.757-0.757-0.757c-0.419,0-0.757,0.339-0.757,0.757
		c0,2.273-2.273,2.273-2.273,2.273c-0.418,0-0.757,0.338-0.757,0.757c0,0.419,0.339,0.757,0.757,0.757c0,0,2.273,0,2.273,2.273
		c0,0.418,0.338,0.757,0.757,0.757c0.419,0,0.757-0.339,0.757-0.757c0-2.273,2.273-2.273,2.273-2.273
		c0.418,0,0.756-0.338,0.756-0.757S49.976,38.699,49.558,38.699z"/>
	<path fill="#FFFFFF" d="M59.158,63.439c-11.361,0-11.361,12.624-11.361,12.624h11.361h11.361
		C70.518,76.063,70.518,63.439,59.158,63.439z"/>
	<path fill="#FFFFFF" d="M78.499,56.721c0.37-1.556,0.789-3.321,0.855-4.579c0.076-1.513-0.371-2.97-0.767-4.256
		c-0.254-0.826-0.494-1.605-0.494-2.119c0-0.515,0.24-1.293,0.494-2.119c0.396-1.286,0.844-2.742,0.767-4.258
		c-0.066-1.256-0.485-3.021-0.855-4.577c-0.168-0.713-0.327-1.377-0.429-1.909c-0.116-0.605,0.114-1.708,0.319-2.681
		c0.436-2.07,0.929-4.414-0.821-5.678c-2.025-1.457-5.05-0.216-7.976,0.984c-1.559,0.641-3.172,1.303-4.124,1.303
		c-1.02,0-2.509-0.595-3.95-1.172c-1.661-0.665-3.381-1.352-4.886-1.352c-1.561,0-2.979,0.71-4.351,1.396
		c-1.16,0.579-2.256,1.128-3.22,1.129c-0.962-0.001-2.058-0.55-3.219-1.129c-1.372-0.685-2.791-1.396-4.351-1.396
		c-1.505,0-3.225,0.688-4.887,1.352c-1.441,0.577-2.93,1.172-3.95,1.172c-0.95,0-2.563-0.662-4.122-1.302
		c-2.926-1.2-5.95-2.44-7.976-0.984c-1.751,1.264-1.257,3.607-0.821,5.676c0.205,0.974,0.438,2.077,0.319,2.685
		c-0.102,0.533-0.261,1.203-0.432,1.918c-0.368,1.553-0.787,3.312-0.851,4.567c-0.076,1.514,0.372,2.97,0.767,4.255
		c0.254,0.826,0.494,1.606,0.494,2.121h-0.006c0,0.514-0.24,1.293-0.494,2.119c-0.396,1.285-0.843,2.742-0.767,4.258
		c0.066,1.255,0.484,3.02,0.855,4.576c0.169,0.713,0.327,1.378,0.429,1.908c0.117,0.607-0.115,1.708-0.319,2.682
		c-0.436,2.069-0.93,4.413,0.821,5.678c0.654,0.471,1.413,0.661,2.239,0.661c1.73,0,3.756-0.833,5.737-1.644
		c1.559-0.641,3.172-1.304,4.124-1.304c0.137,0,0.302,0.035,0.455,0.057c-0.689-0.702-1.25-1.528-1.652-2.441
		c-1.182,0.244-2.504,0.784-3.885,1.351c-1.965,0.806-4.654,1.913-5.54,1.272c-0.419-0.303-0.049-2.058,0.173-3.109
		c0.266-1.265,0.541-2.574,0.328-3.681c-0.107-0.56-0.273-1.262-0.452-2.011c-0.344-1.452-0.735-3.099-0.788-4.125
		c-0.056-1.07,0.307-2.247,0.658-3.384c0.311-1.013,0.606-1.969,0.606-2.862h0.006c0-0.894-0.295-1.85-0.605-2.862
		c-0.35-1.139-0.713-2.316-0.658-3.384c0.052-1.024,0.442-2.665,0.786-4.112c0.179-0.756,0.347-1.463,0.454-2.026
		c0.214-1.106-0.062-2.415-0.328-3.682c-0.221-1.05-0.591-2.807-0.173-3.108c0.884-0.644,3.576,0.466,5.541,1.271
		c1.868,0.767,3.633,1.492,5.081,1.492c1.505,0,3.225-0.688,4.886-1.352c1.441-0.577,2.93-1.173,3.95-1.173
		c0.964,0,2.061,0.549,3.222,1.129c1.37,0.684,2.787,1.393,4.346,1.396c0.001,0,0.002,0,0.002,0c0.001,0,0.002,0,0.004,0
		c1.558-0.003,2.974-0.712,4.345-1.396c1.161-0.581,2.259-1.129,3.222-1.129c1.019,0,2.508,0.595,3.95,1.173
		c1.662,0.664,3.382,1.352,4.887,1.352c1.45,0,3.214-0.725,5.082-1.492c1.965-0.806,4.655-1.915,5.54-1.271
		c0.419,0.302,0.05,2.059-0.172,3.109c-0.266,1.265-0.542,2.574-0.328,3.68c0.107,0.561,0.273,1.262,0.452,2.013
		c0.344,1.452,0.735,3.098,0.788,4.124c0.056,1.07-0.307,2.247-0.658,3.385c-0.311,1.013-0.606,1.969-0.606,2.862
		c0,0.893,0.295,1.849,0.606,2.862c0.351,1.138,0.714,2.314,0.658,3.384c-0.053,1.026-0.444,2.672-0.788,4.125
		c-0.179,0.749-0.345,1.452-0.453,2.012c-0.213,1.107,0.063,2.416,0.329,3.681c0.222,1.05,0.592,2.806,0.172,3.109
		c-0.884,0.644-3.575-0.466-5.54-1.272c-1.868-0.767-3.633-1.491-5.082-1.491c-0.091,0-0.189,0.024-0.281,0.03
		c1.853,0.872,3.421,2.194,4.672,3.907c1.896,0.776,3.816,1.536,5.469,1.536c0.826,0,1.586-0.189,2.239-0.661
		c1.75-1.265,1.257-3.61,0.821-5.678c-0.205-0.973-0.436-2.076-0.321-2.682C78.172,58.1,78.33,57.434,78.499,56.721z"/>
</g>
</svg>
