<?xml version="1.0" encoding="utf-8"?>
<!-- Generator: Adobe Illustrator 17.0.0, SVG Export Plug-In . SVG Version: 6.00 Build 0)  -->
<!DOCTYPE svg PUBLIC "-//W3C//DTD SVG 1.1//EN" "http://www.w3.org/Graphics/SVG/1.1/DTD/svg11.dtd">
<svg version="1.1" id="Layer_1" xmlns="http://www.w3.org/2000/svg" xmlns:xlink="http://www.w3.org/1999/xlink" x="0px" y="0px"
	 width="94.194px" height="94.194px" viewBox="0 0 94.194 94.194" enable-background="new 0 0 94.194 94.194" xml:space="preserve">
<circle fill="#404E69" cx="47.097" cy="47.097" r="47.097"/>
<path fill="#FFFFFF" d="M62.803,40.027c2.206-0.131,3.888-2.025,3.756-4.231c-0.131-2.206-2.025-3.888-4.231-3.756
	c-2.206,0.131-3.888,2.025-3.756,4.231C58.702,38.477,60.597,40.159,62.803,40.027z M62.43,33.751
	c1.258-0.075,2.343,0.888,2.418,2.146c0.075,1.258-0.888,2.343-2.147,2.418c-1.258,0.075-2.343-0.888-2.418-2.146
	C60.208,34.911,61.171,33.826,62.43,33.751z M75.474,39.453l0.001,0.002l-1,0.507l-0.005,0.003l-6.483,3.285l0.561,10.638
	c0.016,0.288-0.003,0.575-0.052,0.859l-1.279,7.208L73.786,72.5l-4.082,2.625l-7.215-11.578l0.028-0.024l-0.053-0.009l1.106-6.123
	l-0.997,0.059l-2.809,7.103l-1.427,11.461l-4.372-0.544l1.493-11.988l-0.007-0.003l3.229-8.165l-0.658-11.069l-6.369-2.926
	l-4.601,3.868l-0.004-0.005c-0.369,0.334-0.885,0.51-1.445,0.392c-0.654-0.137-1.176-0.694-1.274-1.355
	c-0.094-0.627,0.173-1.19,0.617-1.537l-0.003-0.004l6.202-5.2l7.766,3.567l7.029-0.433l7.071-3.583l-2.831-5.698l0.001-0.001
	c-0.205-0.392-0.275-0.865-0.065-1.381c0.19-0.467,0.598-0.838,1.088-0.962c0.83-0.209,1.585,0.215,1.904,0.887l0.007-0.003
	l4.275,8.605L75.474,39.453z M33.695,40.356c2.21-0.006,3.996-1.802,3.99-4.012c-0.006-2.21-1.803-3.996-4.012-3.99
	c-2.21,0.006-3.996,1.803-3.99,4.012C29.689,38.576,31.486,40.362,33.695,40.356z M33.677,34.068c1.26-0.003,2.289,1.019,2.293,2.28
	c0.003,1.26-1.019,2.289-2.28,2.293c-1.26,0.003-2.289-1.019-2.293-2.28C31.394,35.101,32.417,34.072,33.677,34.068z M36.672,61.056
	l7.638,12.283l-4.082,2.624l-7.2-11.579l-1.856-6.714l-7.674,7.837l-0.989,10.506L18.123,75.6l1.134-12.048l0.005,0.001
	l-0.009-0.008l7.231-7.383V42.461l-9.312-13.312l0.005-0.003c-0.3-0.397-0.429-0.926-0.263-1.474
	c0.195-0.64,0.794-1.109,1.462-1.149c0.633-0.038,1.171,0.277,1.477,0.75l0.004-0.003l9.638,13.795h3.057l0.014,0.015
	c1.09,0.1,2.025,0.72,2.564,1.609l0.002-0.001l7.088,9.399l-0.002,0.001l0.781,7.047l-0.007,0.001
	c0.095,0.736-0.308,1.5-1.116,1.774c-0.477,0.162-1.02,0.073-1.434-0.214c-0.461-0.32-0.659-0.757-0.699-1.201h-0.001l-0.683-6.159
	l-3.433-4.553v8.121c0,0.269,0.037,0.537,0.109,0.797L36.672,61.056z M39.572,26.16c0,3.453,2.809,6.262,6.262,6.262
	c3.453,0,6.262-2.81,6.262-6.262c0-3.26-2.505-5.944-5.691-6.233v-3.39c0-0.316-0.256-0.572-0.572-0.572s-0.572,0.256-0.572,0.572
	v3.39C42.077,20.216,39.572,22.9,39.572,26.16z M41.235,23.927h1.347c-0.108,0.523-0.18,1.078-0.208,1.661h-1.624
	C40.815,24.998,40.985,24.439,41.235,23.927z M41.235,28.392c-0.25-0.512-0.42-1.071-0.486-1.661h1.624
	c0.028,0.583,0.1,1.139,0.208,1.661H41.235L41.235,28.392z M41.996,29.536h0.898c0.143,0.411,0.312,0.789,0.504,1.125
	C42.865,30.371,42.393,29.987,41.996,29.536z M45.263,31.096c-0.425-0.263-0.834-0.804-1.151-1.56h1.151V31.096z M46.406,31.096
	v-1.56h1.151C47.241,30.292,46.832,30.833,46.406,31.096z M47.921,28.392h-1.514v-1.661h1.747
	C48.122,27.332,48.039,27.888,47.921,28.392z M50.435,28.392h-1.347c0.108-0.523,0.18-1.078,0.208-1.661h1.624
	C50.854,27.322,50.685,27.88,50.435,28.392z M50.435,23.927c0.25,0.512,0.419,1.071,0.486,1.661h-1.624
	c-0.028-0.583-0.1-1.139-0.208-1.661H50.435L50.435,23.927z M49.674,22.784h-0.898c-0.143-0.411-0.312-0.789-0.504-1.125
	C48.805,21.948,49.276,22.333,49.674,22.784z M48.776,29.536h0.897c-0.397,0.451-0.869,0.836-1.401,1.125
	C48.464,30.324,48.632,29.946,48.776,29.536z M48.153,25.588h-1.747v-1.661h1.514C48.039,24.432,48.122,24.988,48.153,25.588z
	 M47.558,22.784h-1.151v-1.56C46.832,21.487,47.241,22.028,47.558,22.784z M45.263,21.224v1.56h-1.151
	C44.429,22.028,44.838,21.487,45.263,21.224z M43.749,23.927h1.514v1.661h-1.747C43.548,24.988,43.631,24.432,43.749,23.927z
	 M45.263,26.731v1.661h-1.514c-0.118-0.505-0.201-1.06-0.233-1.661H45.263z M43.398,21.659c-0.192,0.337-0.36,0.714-0.504,1.125
	h-0.898C42.393,22.333,42.865,21.948,43.398,21.659z M45.835,33.306c0.316,0,0.572,0.256,0.572,0.572v1.906
	c0,0.316-0.256,0.572-0.572,0.572c-0.316,0-0.572-0.256-0.572-0.572v-1.906C45.263,33.562,45.519,33.306,45.835,33.306z
	 M35.639,26.16c0-0.316,0.256-0.572,0.572-0.572h1.906c0.316,0,0.572,0.256,0.572,0.572c0,0.316-0.256,0.572-0.572,0.572h-1.906
	C35.895,26.731,35.639,26.476,35.639,26.16z M53.554,25.588h1.905c0.316,0,0.572,0.256,0.572,0.572c0,0.316-0.256,0.572-0.572,0.572
	h-1.905c-0.316,0-0.572-0.256-0.572-0.572C52.982,25.844,53.237,25.588,53.554,25.588z M38.626,19.759
	c-0.224-0.223-0.224-0.585,0-0.808c0.223-0.223,0.585-0.223,0.808,0l1.347,1.347c0.223,0.223,0.223,0.585,0,0.808
	c-0.112,0.112-0.258,0.168-0.404,0.168c-0.146,0-0.292-0.056-0.404-0.168L38.626,19.759z M53.044,32.56
	c0.224,0.223,0.224,0.585,0,0.808c-0.112,0.112-0.258,0.168-0.404,0.168c-0.146,0-0.292-0.056-0.404-0.168l-1.347-1.347
	c-0.224-0.223-0.224-0.585,0-0.808c0.224-0.223,0.585-0.223,0.808,0L53.044,32.56z M40.782,31.213c0.223,0.224,0.223,0.585,0,0.808
	l-1.347,1.347c-0.112,0.112-0.258,0.168-0.404,0.168s-0.292-0.056-0.404-0.168c-0.224-0.223-0.224-0.585,0-0.808l1.347-1.347
	C40.196,30.99,40.559,30.99,40.782,31.213z M50.889,21.106c-0.223-0.224-0.223-0.585,0-0.808l1.347-1.347
	c0.223-0.223,0.585-0.223,0.808,0c0.223,0.224,0.223,0.585,0,0.808l-1.347,1.347c-0.112,0.112-0.258,0.168-0.404,0.168
	C51.146,21.274,51,21.218,50.889,21.106z"/>
</svg>
