<?xml version="1.0" encoding="utf-8"?>
<!-- Generator: Adobe Illustrator 17.0.0, SVG Export Plug-In . SVG Version: 6.00 Build 0)  -->
<!DOCTYPE svg PUBLIC "-//W3C//DTD SVG 1.1//EN" "http://www.w3.org/Graphics/SVG/1.1/DTD/svg11.dtd">
<svg version="1.1" id="Layer_1" xmlns="http://www.w3.org/2000/svg" xmlns:xlink="http://www.w3.org/1999/xlink" x="0px" y="0px"
	 width="94.194px" height="94.194px" viewBox="0 0 94.194 94.194" enable-background="new 0 0 94.194 94.194" xml:space="preserve">
<circle fill="#404E69" cx="47.097" cy="47.097" r="47.097"/>
<g>
	<g>
		<path fill="#FFFFFF" d="M42.077,21.786v6.517h0.102h11.178h0.118v-6.704c1.127-0.337,2.092-1.117,2.543-2.233
			c0.784-1.937-0.263-4.103-2.336-4.836c-0.587-0.207-1.191-0.264-1.776-0.215c-0.458-1.028-1.338-1.888-2.544-2.313
			c-2.106-0.743-4.42,0.1-5.484,1.883c-1.853-0.09-3.641,0.916-4.329,2.626C38.688,18.624,39.825,20.977,42.077,21.786z"/>
		<polygon fill="#FFFFFF" points="54.661,70.871 25.193,70.871 25.193,77.585 70.583,77.585 70.583,70.871 		"/>
		<path fill="#FFFFFF" d="M45.852,35.585l2.527,2.581l2.617-2.375C49.717,35.648,47.898,35.514,45.852,35.585z"/>
		<path fill="#FFFFFF" d="M42.596,56.133l-2.939,4.756h-2.271h-1.244h-3.465v1.089h-1.265c-0.428,0-0.776,0.326-0.776,0.725
			c0,0.401,0.348,0.725,0.776,0.725h1.265v6.169h18.07v-6.169h1.262c0.429,0,0.778-0.324,0.778-0.725
			c0-0.398-0.349-0.725-0.778-0.725h-1.262v-1.089H40.647l2.778-4.499c0.13,0.04,0.268,0.083,0.394,0.121
			c4.604,1.408,6.561-5.351,1.992-6.749c-3.041-0.928-7.684-2.245-9.638-4.761c0.032-0.026,0.066-0.053,0.108-0.078
			c0.418-0.267,0.873-0.488,1.344-0.684v0.582c0.464,0.343,0.893,0.632,1.259,0.82c1.959,1.426,5.099,2.38,7.321,3.056l0.47,0.142
			c2.907,0.889,3.847,3.376,3.495,5.445c-0.408,2.386-2.343,4.052-4.707,4.052c-0.539,0-1.097-0.085-1.654-0.257
			c-0.088-0.026-0.189-0.058-0.275-0.085l-1.228,1.875h9.412v1.089h0.325c0.944,0,1.714,0.719,1.714,1.601
			c0,0.882-0.77,1.6-1.714,1.6h-0.325v5.693h5.26V44.666c0.064,0.048,0.131,0.091,0.195,0.142c2.712,2.203,2.451,6.037,2.041,9.043
			c-0.61,4.464,6.887,4.413,7.49,0c0.693-5.063-0.21-10.284-4.234-13.989c-2.516-2.313-5.888-3.395-9.36-3.767l-3.578,3.248
			l3.081,3.146l-1.261,1.077l-7.663-7.828c-0.955,0.104-1.927,0.255-2.896,0.48c-5.4,1.006-13.601,3.488-12.16,9.962
			C29.857,51.677,37.29,54.462,42.596,56.133z"/>
		<path fill="#FFFFFF" d="M53.372,29.062h-11.21c0,2.892,2.512,5.235,5.606,5.235C50.865,34.297,53.372,31.954,53.372,29.062z"/>
		<path fill="#FFFFFF" d="M37.852,56.055l-0.016,3.814h1.315l1.744-2.715C39.934,56.833,38.877,56.471,37.852,56.055z"/>
		<path fill="#FFFFFF" d="M31.212,54.526c-0.084,0.362-0.024,0.75,0.102,1.098c0.141,0.345,0.362,0.642,0.602,0.903
			c0.261,0.257,0.512,0.444,0.699,0.639c0.21,0.194,0.373,0.409,0.486,0.619c0.101,0.211,0.137,0.425,0.025,0.663
			c-0.101,0.242-0.328,0.468-0.592,0.671c0.346-0.027,0.689-0.161,0.972-0.426c0.284-0.264,0.399-0.725,0.297-1.1
			c-0.169-0.751-0.811-1.262-1.19-1.648c-0.399-0.398-0.658-0.846-0.675-1.347c-0.013-0.504,0.228-1.066,0.597-1.599
			C31.913,53.257,31.37,53.796,31.212,54.526z"/>
		<path fill="#FFFFFF" d="M34.695,56.596c-0.058,0.243-0.016,0.505,0.069,0.739c0.096,0.233,0.245,0.435,0.407,0.61
			c0.177,0.176,0.346,0.304,0.473,0.434c0.143,0.131,0.252,0.278,0.329,0.421c0.069,0.143,0.091,0.287,0.017,0.445
			c-0.067,0.164-0.221,0.318-0.4,0.454c0.233-0.02,0.466-0.11,0.657-0.289c0.19-0.178,0.269-0.491,0.201-0.745
			c-0.114-0.508-0.549-0.855-0.805-1.115c-0.271-0.269-0.447-0.572-0.456-0.911c-0.01-0.343,0.153-0.725,0.405-1.086
			C35.168,55.735,34.8,56.098,34.695,56.596z"/>
	</g>
</g>
</svg>
