<?xml version="1.0" encoding="utf-8"?>
<!-- Generator: Adobe Illustrator 17.0.0, SVG Export Plug-In . SVG Version: 6.00 Build 0)  -->
<!DOCTYPE svg PUBLIC "-//W3C//DTD SVG 1.1//EN" "http://www.w3.org/Graphics/SVG/1.1/DTD/svg11.dtd">
<svg version="1.1" id="Layer_1" xmlns="http://www.w3.org/2000/svg" xmlns:xlink="http://www.w3.org/1999/xlink" x="0px" y="0px"
	 width="94.194px" height="94.194px" viewBox="0 0 94.194 94.194" enable-background="new 0 0 94.194 94.194" xml:space="preserve">
<circle fill="#404E69" cx="47.097" cy="47.097" r="47.097"/>
<g>
	<path fill="#FFFFFF" d="M27.436,61.167c-1.946,0-3.523-1.577-3.523-3.521c0-1.948,1.577-3.525,3.523-3.525
		c1.947,0,3.524,1.577,3.524,3.525C30.96,59.59,29.383,61.167,27.436,61.167"/>
	<path fill="#FFFFFF" d="M20.339,73.947v-6.905c0-2.489,2.045-4.513,4.539-4.513h4.865c2.493,0,4.719,2.024,4.719,4.513v6.905
		H20.339z"/>
	<path fill="#FFFFFF" d="M63.972,60.868c1.947,0,3.524-1.582,3.524-3.525c0-1.949-1.577-3.525-3.524-3.525
		c-1.948,0-3.524,1.577-3.524,3.525C60.448,59.286,62.025,60.868,63.972,60.868"/>
	<path fill="#FFFFFF" d="M71.066,73.947v-6.905c0-2.489-2.046-4.513-4.541-4.513h-4.86c-2.497,0-4.72,2.024-4.72,4.513v6.905H71.066
		z"/>
	<path fill="#FFFFFF" d="M45.699,54.078c1.968,0,3.565,1.582,3.565,3.536c0,1.951-1.597,3.534-3.565,3.534
		c-1.97,0-3.565-1.582-3.565-3.534C42.133,55.66,43.729,54.078,45.699,54.078"/>
	<path fill="#FFFFFF" d="M37.113,73.947l2.806-7.642c1.122-3.904,4.394-3.784,4.394-3.784h1.39h1.388c0,0,3.269-0.12,4.395,3.784
		l2.805,7.642H37.113z"/>
	<polygon fill="#FFFFFF" points="45.699,49.614 45.699,41.253 44.31,39.865 44.31,48.223 23.311,48.223 23.311,21.637 44.31,21.637 
		44.31,35.295 45.699,36.682 45.699,20.247 21.928,20.247 21.928,49.614 	"/>
	<path fill="#FFFFFF" d="M63.972,34.23c1.947,0,3.524-1.582,3.524-3.525c0-1.949-1.577-3.525-3.524-3.525
		c-1.948,0-3.524,1.577-3.524,3.525C60.448,32.648,62.025,34.23,63.972,34.23"/>
	<path fill="#FFFFFF" d="M66.525,35.354h-4.86c-0.876,0-1.715,0.252-2.441,0.684c-0.861,0.343-1.59,0.94-2.09,1.692l-2.921,4.407
		l-4.431-0.002l-6.259-6.259c-0.235-0.237-0.617-0.237-0.852,0c-0.237,0.235-0.238,0.617-0.002,0.853l5.955,5.956
		c-0.129,0.213-0.331,0.645-0.331,0.918c0,0.822,0.664,1.482,1.483,1.482h4.88c0.553,0,1.284-0.224,1.594-0.69
		c0.232-0.344,0.466-0.692,0.695-1.031v1.922v1.488v3.157h1.79h12.286h0.045v-3.157v-1.488v-5.419
		C71.066,37.378,69.02,35.354,66.525,35.354"/>
</g>
</svg>
