<?xml version="1.0" encoding="utf-8"?>
<!-- Generator: Adobe Illustrator 17.0.0, SVG Export Plug-In . SVG Version: 6.00 Build 0)  -->
<!DOCTYPE svg PUBLIC "-//W3C//DTD SVG 1.1//EN" "http://www.w3.org/Graphics/SVG/1.1/DTD/svg11.dtd">
<svg version="1.1" id="Layer_1" xmlns="http://www.w3.org/2000/svg" xmlns:xlink="http://www.w3.org/1999/xlink" x="0px" y="0px"
	 width="94.194px" height="94.194px" viewBox="0 0 94.194 94.194" enable-background="new 0 0 94.194 94.194" xml:space="preserve">
<circle fill="#404E69" cx="47.097" cy="46.747" r="47.097"/>
<g>
	<g>
		<g>
			<path fill="#FFFFFF" d="M61.024,25.097c1.94,0,3.518,1.576,3.518,3.517c0,1.943-1.577,3.512-3.518,3.512
				c-1.939,0-3.512-1.57-3.512-3.512C57.512,26.673,59.085,25.097,61.024,25.097z"/>
		</g>
		<g>
			
				<rect x="76.944" y="34.267" transform="matrix(-0.4479 -0.8941 0.8941 -0.4479 80.4126 123.1324)" fill="#FFFFFF" width="2.559" height="4.943"/>
			<circle fill="#FFFFFF" cx="60.087" cy="45.638" r="2.085"/>
		</g>
		<g>
			<path fill="#FFFFFF" d="M76.379,38.786c0,0,0-0.001-0.001-0.002h-0.001c-0.196-0.39-0.527-0.713-0.97-0.878
				c-0.929-0.349-1.964,0.122-2.313,1.051l-0.679,1.811l-7.222,3.618l0,0c0.823,2.399-0.046,3.87-1.165,4.43
				c-0.585,0.294-1.95,0.416-1.95,0.416c-0.042,0.007-1.062,0.186-1.786,0.568c-0.165,0.088-0.323,0.194-0.474,0.316
				c-0.003,0.002-0.004,0.004-0.006,0.006c-0.15,0.12-0.291,0.258-0.424,0.409v0.001c-0.245,0.278-0.461,0.602-0.635,0.973
				l-0.152,0.402c-0.462,1.255-1.385,2.327-2.465,2.869c-0.549,0.274-1.193,0.419-1.861,0.419h-0.001
				c-1.739-0.001-4.117-1.037-5.576-3.949c-0.902-1.797-1.139-3.547-0.685-5.057c0.361-1.203,1.171-2.207,2.229-2.791l3.843,4.245
				c0.066,0.071,0.139,0.128,0.211,0.188l1.519,3.029l0.822-0.412l-1.089-2.172c0.454-0.006,0.907-0.17,1.271-0.499
				c0.791-0.717,0.852-1.94,0.135-2.732l-1.617-1.786c0.549,0.013,1.077-0.082,1.529-0.297c0.741-0.35,1.494-1.059,1.526-1.09
				c0,0,0.631-0.752,0.997-1.008c0.158-0.112,0.324-0.215,0.502-0.305c0.147-0.074,0.296-0.129,0.445-0.176
				c0.27-0.086,0.541-0.134,0.814-0.134c1.169,0,2.259,0.802,3.181,2.327l7.527-3.771l-2.001-4.273
				c-0.211-0.327-0.516-0.679-0.933-0.92c-0.482-0.308-1.221-0.525-2.306-0.593h-1.622v8.556c-1.341-1.968-2.793-2.431-3.847-2.431
				c-0.273,0-0.545,0.034-0.814,0.094V33.02L56.8,33.036c-0.76,0.011-1.52,0.184-2.211,0.702l-6.12,4.547
				c-0.436,0.326-0.715,0.821-0.768,1.363c-0.053,0.542,0.126,1.082,0.491,1.486l1.293,1.428c-1.199,0.736-2.11,1.917-2.529,3.311
				c-0.536,1.785-0.274,3.813,0.754,5.869c1.685,3.363,4.497,4.561,6.565,4.561h0.001c0.84,0,1.654-0.186,2.356-0.537
				c0.289-0.145,0.547-0.313,0.788-0.49c0,0-0.002,0.002-0.003,0.003l0.019,16.283h4.387v-18.59h1.621v18.589h4.382V49.662h2.037
				v-6.648l1.27,2.712c0.296,0.634,0.931,1.035,1.626,1.035c0.023,0,0.046,0,0.071-0.001c0.721-0.029,1.358-0.487,1.611-1.165
				l2.017-5.375c0.001-0.004,0.001-0.007,0.003-0.011C76.513,40.036,76.672,39.311,76.379,38.786z M56.074,37.439v4.633
				c-0.198,0.056-0.406,0.093-0.635,0.093c-0.195,0-0.394-0.02-0.55-0.051l-0.405-0.117c-0.124-0.037-0.251-0.067-0.38-0.097
				l-1.616-1.785L56.074,37.439z"/>
		</g>
	</g>
	<path fill="#FFFFFF" d="M43.314,62.538c-0.241-0.39,0.275-1.216,0.119-1.901c-0.138-0.594-0.277-1.189-0.416-1.783
		c-0.638-1.622-1.247-2.946-1.901-4.278c-0.159-0.416-0.317-0.832-0.476-1.248c-0.477-0.619-1.27-1.524-1.486-2.317l-0.058-0.071
		l-0.061-0.108c-0.139-0.198-0.278-0.396-0.416-0.594c0,0-1.515-1.615-1.426-2.317c-0.138-0.04-0.278-0.08-0.416-0.119
		c-0.136-0.975-0.282-1.446-0.654-2.496c-0.175-0.522-0.503-1.314-0.832-1.723c0.099-0.155,0.43-0.383,0.43-0.383
		s0.809-0.799,1.294-0.805c0.557,0.482,1.142,1.483,1.307,2.317c0.376,0.079,0.753,0.159,1.128,0.238
		c0.06-0.099,0.119-0.198,0.179-0.297c0.123-0.351-0.111-0.429-0.119-0.713c-0.023-0.775,0.276-0.947,0.06-2.02
		c-0.011-0.167,0.007-0.236,0.007-0.236s0.05-0.21,0.172-0.358c0.705-0.844,1.84-1.482,1.604-3.09
		c-0.633-0.297-1.267-0.594-1.902-0.891c-0.336-0.039-0.673-0.079-1.01-0.119c-0.778-0.424-1.918-1.187-2.912-1.486
		c-1.155-0.095-3.262-0.492-3.625-1.01c-0.244-0.349,0.138-0.834,0.237-1.07c0.436-0.119,0.872-0.238,1.307-0.356
		c0.283-0.231-0.022-0.331,0.357-0.416c-0.008-0.49,0.371-1.84,0.297-2.139c0.287-2.136-3.401-6.387-6.537-2.377
		c-0.37,0.501-0.367,1.323-0.772,1.783c0.083,0.464,1,2.787,0.535,3.149c0.203,0.376,0.616,0.775,1.01,0.951
		c-0.189,0.146-0.317,0.101-0.594,0.06c-0.471-1.202-2.139-2.494-2.02-3.981c-0.132-0.229-0.234-0.541-0.594-0.891
		c-1.213-1.745,0.972-3.125,1.545-4.397c0.04-0.02,0.08-0.04,0.119-0.059c0.139,0.178,0.166,0.662,0.178,0.951
		c0.139,0.079,0.278,0.159,0.416,0.238c0.416-0.238,0.832-0.475,1.248-0.713c0.104-0.682-0.006-1.535,0.059-2.317
		c1.271-0.117,1.818,0.601,3.328,0.594c0.369-0.386,1.171-1.145,1.426-1.545c-0.086-0.329-0.057-0.595-0.297-0.773
		c-0.157-0.15-0.354-0.089-0.535-0.119c-0.153,0.144-0.187,0.279-0.237,0.535c-1.732,0.382-2.93-1.737-4.517,0.059
		c-0.362-0.097-0.483-0.385-0.712-0.475c-0.376-0.147-0.994,0.477-1.307,0.594c-0.119,0.416-0.238,0.832-0.357,1.248
		c-0.02,0.02-0.039,0.039-0.059,0.059c-0.02,0-0.091,0.089-0.112,0.089c-0.183,0.126,0.037-0.027-0.186,0.149
		c-0.182,0.238-0.448,0.501-0.773,0.594c-0.371,0.349-0.554,0.519-0.772,0.891c-0.15,0.158-0.18,0.128-0.357,0.238
		c-0.433,0.655-1.114,1.268-1.367,2.08c-0.194,0.623,0.21,1.01,0.297,1.367c0.221,0.911,0.215,1.625,0.475,2.496
		c0.345,1.153,1.215,2.123,1.664,3.149c0.258,0.951,0.515,1.902,0.773,2.852c0.317,0.574,0.633,1.149,0.951,1.723
		c0.336,0.891,0.674,1.783,1.01,2.674c1.025,1.824,3.335,2.817,2.733,5.765c-0.02,0.039-0.039,0.079-0.059,0.118
		c-1.099-0.113-1.934-0.925-3.15-1.129c-0.58,0.353-1.186,0.697-1.485,1.308c-0.199,0.455-0.396,0.911-0.594,1.366
		c-2.136,1.898-3.372,0.231-3.328,4.754c-2.081,0.872-2.843,2.537-1.961,4.932c-0.263,0.285-0.619,0.242-0.951,0.475
		c-0.027,0.018-1.968,2.584-2.02,2.615c-0.039,0.02-0.066,0.049-0.097,0.081l-0.034,0.07l-0.046,0.086
		c-0.447,0.614-1.777,2.556-2.496,2.377c-0.197,0.304-0.108,0.972-0.356,1.426c0.02,0.059,0.225,0.078,0.285,0.096
		c0.152,0.088,0.308,0.315,0.308,0.315s0.29,0.55,0.714,0.717c0.117,0.714,0.879,0.613,1.486,0.476
		c0.08,0.456,0.254,0.784,0.334,1.24c0.297,0.02,0.499,0.166,0.796,0.186c0.08,0.159,0.159,0.317,0.238,0.475
		c0.159,0.02,0.317,0.04,0.475,0.06c0.177-0.009,0.124-0.102,0.534-0.178c-0.01-0.06-0.005-0.03,0,0
		c0.188,0.096,0.607,0.034,0.773,0.118c0.159,0.218,0.317,0.436,0.475,0.654c0.398,0.408,1.339,0.488,2.139,0.475
		c0,0.138,0,0.277,0,0.416c0.424,0.089,3.296,0.164,3.387,0.059c0.02-0.088,0.039-0.177,0.059-0.264
		c0.03-0.144,0.06-0.291,0.06-0.27c-0.02,0.09-0.04,0.181-0.06,0.27c-0.03,0.142-0.059,0.284-0.059,0.264
		c0.198,0.02,0.812,0.159,1.01,0.178c-0.025-0.064-0.049-0.128,0,0c0.774,0.258,1.904,0.302,2.733,0.357c-0.02-0.079-0.01-0.039,0,0
		c0.469,0.049,0.365-0.22,0.654-0.119c0.732-0.059,1.466-0.119,2.198-0.178c0.14-0.15,0.711-0.655,1.367-0.475
		c0.241,0.065,0.471,0.315,0.475,0.475c0.254,0.163,1.608,0.323,1.902,0.416c0.365,0.008,0.385,0.061,0.475-0.238
		c0.614,0.059,1.228,0.119,1.842,0.178c0.093-0.022,0.099-0.019,0.077-0.011c0.218-0.023,0.655-0.263,0.815-0.227
		c0.164-0.093,0.606-0.291,0.891-0.416c0.928,1.119,2.806,1.664,4.694,1.307c0.348-0.065,0.37-0.479,0.594-0.654
		c0.436-0.341,1.215-0.49,1.902-0.534C47.898,68.865,44.129,64.194,43.314,62.538z M34.98,41.249
		c-0.446-0.143-1.346-0.488-1.396-0.713s0.357-1.07,0.357-1.07s0.446-0.795,0.803-0.951c0.357-0.156,1.333,0.565,1.783,0.535
		l1.307,0.148c0.103,0.248-0.624,0.416-0.624,0.416l-0.921,1.01C36.287,40.625,35.426,41.393,34.98,41.249z"/>
</g>
</svg>
