<?xml version="1.0" encoding="utf-8"?>
<!-- Generator: Adobe Illustrator 17.0.0, SVG Export Plug-In . SVG Version: 6.00 Build 0)  -->
<!DOCTYPE svg PUBLIC "-//W3C//DTD SVG 1.1//EN" "http://www.w3.org/Graphics/SVG/1.1/DTD/svg11.dtd">
<svg version="1.1" id="Layer_1" xmlns="http://www.w3.org/2000/svg" xmlns:xlink="http://www.w3.org/1999/xlink" x="0px" y="0px"
	 width="94.194px" height="94.194px" viewBox="0 0 94.194 94.194" enable-background="new 0 0 94.194 94.194" xml:space="preserve">
<circle fill="#404E69" cx="47.097" cy="47.097" r="47.097"/>
<g>
	<g>
		<path fill="#FFFFFF" d="M78.077,43.365c0.005,0,0.008-0.17-0.02-0.264c-0.043-0.139-0.128-0.233-0.229-0.324l-7.1-23.265
			c-0.104-0.343-0.421-0.57-0.78-0.57H24.247c-0.36,0-0.677,0.237-0.781,0.581L16.47,42.722c-0.163,0.11-0.292,0.245-0.35,0.439
			c-0.023,0.077-0.014,0.205-0.014,0.205h-0.061l0.067,0.906c0.145,1.925,2.283,4.849,5.133,4.849c0.491,0,0.75-0.076,1.427-0.229
			v24.727c0.001,0.903,0.796,1.633,1.697,1.633c0.901,0,1.696-0.731,1.696-1.633v-7.865h42.063v7.866
			c0,0.902,0.796,1.633,1.696,1.633s1.696-0.731,1.696-1.633V48.893c0.679,0.152,0.937,0.244,1.428,0.244
			c2.85,0,4.973-2.94,5.118-4.865l0.082-0.906H78.077z M60.832,43.365l-3.065-23.067h4.893l5.102,23.067H60.832z M67.588,44.722
			c-0.525,1.357-1.823,2.447-3.236,2.447c-1.413,0-2.711-1.091-3.235-2.447H67.588z M43.642,43.365l1.014-23.067h4.702l0.969,23.067
			H43.642z M50.334,44.722c-0.525,1.357-1.824,2.447-3.236,2.447c-1.413,0-2.711-1.091-3.237-2.447H50.334z M26.478,43.365
			l5.048-23.067h4.926l-3.125,23.067H26.478z M33.078,44.722c-0.523,1.357-1.822,2.447-3.236,2.447
			c-1.413,0-2.711-1.091-3.237-2.447H33.078z M26.067,63.718V46.964c0.678,1.197,2.221,2.172,3.87,2.172
			c1.878,0,3.381-1.264,4.267-2.675c0.885,1.411,2.413,2.675,4.291,2.675c1.877,0,3.416-1.264,4.302-2.675
			c0.885,1.411,2.431,2.675,4.308,2.675c1.877,0,3.426-1.264,4.311-2.675c0.884,1.411,2.435,2.675,4.311,2.675
			c1.879,0,3.428-1.264,4.314-2.675c0.884,1.411,2.341,2.675,4.219,2.675c1.649,0,3.191-0.976,3.87-2.172v16.755H26.067z"/>
		<path fill="#FFFFFF" d="M32.668,56.025c-0.441,0.039-0.857,0.154-1.239,0.325l-0.135-0.285c0.005-0.001,1.138-0.095,1.624-1.283
			c0.457-1.125-0.264-2.054-0.264-2.054s-1.063-0.089-1.623,1.285c-0.187,0.456-0.208,0.834-0.165,1.144l-0.34-0.722l-0.884,0.416
			c0,0,1.008,1.237,1.391,1.706c-1.258,0.744-2.047,2.162-1.907,3.715c0.195,2.151,2.095,3.736,4.244,3.541
			c2.151-0.193,3.736-2.095,3.542-4.245C36.72,57.416,34.817,55.83,32.668,56.025z"/>
		<path fill="#FFFFFF" d="M42.057,56.025c-0.442,0.039-0.857,0.154-1.24,0.325l-0.134-0.285c0.005-0.001,1.138-0.095,1.625-1.283
			c0.457-1.125-0.265-2.054-0.265-2.054s-1.063-0.089-1.623,1.285c-0.186,0.456-0.209,0.834-0.166,1.144l-0.339-0.722l-0.885,0.416
			c0,0,1.009,1.237,1.39,1.706c-1.259,0.744-2.046,2.162-1.907,3.715c0.194,2.151,2.096,3.736,4.245,3.541
			c2.149-0.193,3.735-2.095,3.542-4.245C46.108,57.416,44.206,55.83,42.057,56.025z"/>
		<path fill="#FFFFFF" d="M51.445,56.025c-0.441,0.039-0.857,0.154-1.24,0.325l-0.134-0.285c0.007-0.001,1.139-0.095,1.624-1.283
			c0.458-1.125-0.262-2.054-0.262-2.054s-1.064-0.089-1.625,1.285c-0.185,0.456-0.209,0.834-0.165,1.144l-0.339-0.722l-0.884,0.416
			c0,0,1.009,1.237,1.39,1.706c-1.257,0.744-2.046,2.162-1.907,3.715c0.195,2.151,2.095,3.736,4.244,3.541
			c2.151-0.193,3.736-2.095,3.542-4.245C55.497,57.416,53.594,55.83,51.445,56.025z"/>
		<path fill="#FFFFFF" d="M60.834,56.025c-0.441,0.039-0.857,0.154-1.24,0.325l-0.133-0.285c0.006-0.001,1.138-0.095,1.624-1.283
			c0.458-1.125-0.263-2.054-0.263-2.054s-1.064-0.089-1.624,1.285c-0.185,0.456-0.209,0.834-0.165,1.144l-0.339-0.722l-0.884,0.416
			c0,0,1.009,1.237,1.39,1.706c-1.258,0.744-2.046,2.162-1.907,3.715c0.195,2.151,2.095,3.736,4.245,3.541
			c2.15-0.193,3.736-2.095,3.541-4.245C64.885,57.416,62.983,55.83,60.834,56.025z"/>
	</g>
</g>
</svg>
