<?xml version="1.0" encoding="utf-8"?>
<!-- Generator: Adobe Illustrator 17.0.0, SVG Export Plug-In . SVG Version: 6.00 Build 0)  -->
<!DOCTYPE svg PUBLIC "-//W3C//DTD SVG 1.1//EN" "http://www.w3.org/Graphics/SVG/1.1/DTD/svg11.dtd">
<svg version="1.1" id="Layer_1" xmlns="http://www.w3.org/2000/svg" xmlns:xlink="http://www.w3.org/1999/xlink" x="0px" y="0px"
	 width="94.194px" height="94.194px" viewBox="0 0 94.194 94.194" enable-background="new 0 0 94.194 94.194" xml:space="preserve">
<circle fill="#404E69" cx="47.097" cy="47.097" r="47.097"/>
<g>
	<g>
		<path fill="#FFFFFF" d="M40.586,24.925v0.002c0.005,0,0.01-0.002,0.015-0.002c2.063,0,3.789,1.192,4.373,2.824
			c0.618-0.359,1.311-0.566,2.046-0.566c0.742,0,1.44,0.211,2.063,0.576c0.581-1.636,2.31-2.833,4.376-2.833
			c0.005,0,0.011,0.001,0.015,0.001v-0.001h3.338c0.051-0.004,0.103-0.005,0.154-0.01c-1.062-4.165-5.062-7.263-9.849-7.263
			c-4.792,0-8.793,3.103-9.852,7.272L40.586,24.925L40.586,24.925z"/>
		<path fill="#FFFFFF" d="M81.872,54.066L66.116,30.971c-0.194-0.285-0.422-0.532-0.666-0.757c0.411,1.003,0.643,2.099,0.643,3.248
			c0,3.059-1.615,5.743-4.03,7.263l5.047,7.398l-6.801-2.306c-4.778-1.34-10.393-1.551-10.393-1.551
			c1.588-0.581,2.975-1.636,4.005-3.02c-2.798-1.299-4.786-4.055-4.969-7.294c0,0-0.095-2.374-1.957-2.358
			c-1.612,0.014-1.863,1.603-1.925,2.34c-0.001,3.376-1.933,5.827-4.776,7.226c1.044,1.434,2.463,2.524,4.094,3.113
			c0,0-6.054,0.163-10.503,1.545l-6.8,2.306l4.998-7.327c-2.481-1.507-4.147-4.226-4.147-7.334c0-1.042,0.196-2.037,0.538-2.962
			c-0.136,0.15-0.277,0.297-0.395,0.47L12.323,54.066c-1.072,1.57-1.02,3.651,0.131,5.167c0.853,1.123,2.166,1.748,3.523,1.748
			c0.473,0,0.952-0.075,1.418-0.234l14.715-4.988v20.783h29.81V55.704l14.878,5.042c0.466,0.159,0.945,0.234,1.418,0.234
			c1.357,0,2.671-0.625,3.523-1.748C82.89,57.717,82.943,55.636,81.872,54.066z"/>
	</g>
	<g>
		<g>
			<g>
				<path fill="#FFFFFF" d="M36.52,40.286c-3.762,0-6.822-3.059-6.822-6.821c0-3.762,3.061-6.822,6.822-6.822
					c3.762,0,6.824,3.061,6.824,6.822C43.343,37.226,40.282,40.286,36.52,40.286L36.52,40.286z M36.52,30.162
					c-1.82,0-3.301,1.481-3.301,3.301c0,1.82,1.482,3.301,3.301,3.301c1.821,0,3.303-1.482,3.303-3.301
					C39.822,31.644,38.34,30.162,36.52,30.162L36.52,30.162z"/>
			</g>
			<g>
				<path fill="#FFFFFF" d="M57.511,40.286c-3.762,0-6.823-3.059-6.823-6.821c0-3.762,3.061-6.822,6.823-6.822
					c3.762,0,6.822,3.061,6.822,6.822C64.333,37.226,61.272,40.286,57.511,40.286L57.511,40.286z M57.511,30.162
					c-1.82,0-3.301,1.481-3.301,3.301c0,1.82,1.48,3.301,3.301,3.301c1.82,0,3.3-1.482,3.3-3.301
					C60.811,31.644,59.33,30.162,57.511,30.162L57.511,30.162z"/>
			</g>
		</g>
	</g>
</g>
</svg>
