<?xml version="1.0" encoding="utf-8"?>
<!-- Generator: Adobe Illustrator 17.0.0, SVG Export Plug-In . SVG Version: 6.00 Build 0)  -->
<!DOCTYPE svg PUBLIC "-//W3C//DTD SVG 1.1//EN" "http://www.w3.org/Graphics/SVG/1.1/DTD/svg11.dtd">
<svg version="1.1" id="Layer_1" xmlns="http://www.w3.org/2000/svg" xmlns:xlink="http://www.w3.org/1999/xlink" x="0px" y="0px"
	 width="94.194px" height="94.194px" viewBox="0 0 94.194 94.194" enable-background="new 0 0 94.194 94.194" xml:space="preserve">
<circle fill="#404E69" cx="47.097" cy="47.097" r="47.097"/>
<path fill="#FFFFFF" d="M53.256,31.821c0,0.836-0.684,1.521-1.521,1.521c-0.836,0-1.521-0.684-1.521-1.521
	c0-0.837,0.684-1.521,1.521-1.521C52.572,30.3,53.256,30.985,53.256,31.821z M74.547,49.614c-0.456,1.825-1.749,4.182-2.053,4.638
	c-0.228,0.532-0.38,1.065-0.38,1.597l-1.825,18.021c-0.152,1.293-1.217,2.281-2.509,2.281h-3.194c-1.293,0-2.357-0.988-2.509-2.281
	L60.252,55.85c-0.076-0.532-0.228-1.064-0.38-1.597c-0.228-0.456-1.521-2.813-2.053-4.638c-0.152-0.684-1.369-7.224,0.38-8.897
	c0.38-0.38,0.608-0.608,1.064-0.988c1.673-1.217,3.65-2.053,3.726-2.053c0.608-0.228,1.293-0.076,1.673,0.456l1.521,2.129
	l1.521-2.129c0.38-0.532,1.065-0.684,1.673-0.456c0.076,0,2.053,0.836,3.726,2.053c0.456,0.38,0.684,0.608,1.065,0.988
	C75.916,42.467,74.7,48.93,74.547,49.614z M62.685,35.775c-1.749-1.977-1.521-5.019-1.445-5.551c0.228-4.03,3.27-4.943,4.943-4.943
	c1.673-0.076,4.715,0.913,4.943,4.943c0.076,0.532,0.304,3.65-1.445,5.551c-0.837,0.912-1.977,1.445-3.422,1.521h-0.076
	c0,0,0,0-0.076,0h-0.076C64.662,37.22,63.522,36.688,62.685,35.775z M24.513,35.927c-1.749-1.977-1.521-5.019-1.445-5.551
	c0.228-4.03,3.27-4.943,4.943-4.943c1.673-0.076,4.715,0.913,4.943,4.943c0.076,0.532,0.304,3.65-1.445,5.551
	c-0.836,0.913-1.977,1.445-3.422,1.521h-0.076c0,0,0,0-0.076,0h-0.076C26.49,37.372,25.35,36.916,24.513,35.927z M47.021,30.3
	c-0.836,0-1.521,0.684-1.521,1.521c0,0.836,0.684,1.521,1.521,1.521c0.836,0,1.521-0.684,1.521-1.521
	C48.542,30.985,47.857,30.3,47.021,30.3z M54.701,40.109h-8.136l-4.258,4.106c-0.304,0.228-0.608,0.38-0.989,0.38
	c-0.152,0-0.38,0-0.532-0.076c-0.532-0.228-0.836-0.76-0.836-1.293v-3.042h-0.608c-2.129,0-3.954-1.749-3.954-3.954v-9.429
	c0-2.129,1.749-3.954,3.954-3.954h15.36c2.129,0,3.954,1.749,3.954,3.954v9.353C58.655,38.361,56.906,40.109,54.701,40.109z
	 M55.842,26.802c0-0.608-0.532-1.141-1.141-1.141h-15.36c-0.608,0-1.141,0.532-1.141,1.141v9.353c0,0.608,0.532,1.141,1.141,1.141
	h1.977c0.76,0,1.369,0.608,1.369,1.369v1.141l2.281-2.205c0.228-0.228,0.608-0.38,0.988-0.38h8.669c0.608,0,1.141-0.532,1.141-1.141
	v-9.277H55.842z M42.307,30.3c-0.837,0-1.521,0.684-1.521,1.521c0,0.836,0.684,1.521,1.521,1.521c0.836,0,1.521-0.684,1.521-1.521
	C43.827,30.985,43.143,30.3,42.307,30.3z M35.995,40.946c1.749,1.749,0.532,8.212,0.38,8.897c-0.456,1.825-1.749,4.182-2.053,4.638
	c-0.228,0.532-0.38,1.065-0.38,1.597l-1.825,18.022c-0.152,1.293-1.217,2.281-2.509,2.281h-3.194c-1.293,0-2.357-0.989-2.509-2.281
	L22.08,56.078c-0.076-0.532-0.228-1.064-0.38-1.597c-0.228-0.456-1.521-2.814-2.053-4.638c-0.152-0.684-1.369-7.224,0.38-8.897
	c0.38-0.38,0.608-0.608,1.065-0.988c1.673-1.217,3.65-2.053,3.726-2.053c0.608-0.228,1.293-0.076,1.673,0.456l1.521,2.129
	l1.521-2.129c0.38-0.532,1.064-0.684,1.673-0.456c0.076,0,2.053,0.836,3.726,2.053C35.387,40.338,35.615,40.566,35.995,40.946z"/>
</svg>
